PathFileType	4	(X/Y/Z)	OpenSim_Sub07_EMGStiffKnee_Accel.trc
DataRate	CameraRate	NumFrames	NumMarkers	Units	OrigDataRate	OrigDataStartFrame	OrigNumFrames
100	100	37	8	m	100	924	7388
Frame#	Time	torso_imu_offset_imu	pelvis_imu_offset_imu	tibia_r_imu_offset_imu	femur_r_imu_offset_imu	tibia_l_imu_offset_imu	femur_l_imu_offset_imu	toes_r_imu_offset_imu	toes_l_imu_offset_imu
				X1	Y1	Z1	X2	Y2	Z2	X3	Y3	Z3	X4	Y4	Z4	X5	Y5	Z5	X6	Y6	Z6	X7	Y7	Z7	X8		Y8	Z8	

924	9.23000000	-8.23277127	0.03349699	6.45877893	8.97869978	0.21243031	2.73135991	3.13346257	2.96348030	-1.61440684	7.95562022	-0.91272152	1.42394771	9.43631182	-1.01010647	-0.37395585	9.19792615	1.23791984	-1.59446209	3.41664727	2.79488928	7.27140991	5.56902624	1.19095960	10.83131092
925	9.24000000	-8.37379592	0.00317557	6.59150879	9.02117711	0.29621828	2.65759567	4.24780621	3.12589999	-2.12506170	7.89629603	-0.82307180	1.13098194	9.60889283	-1.97686542	-0.60145136	9.07674876	1.22765749	-1.62311055	3.21600018	4.00426997	7.52916583	5.26132781	1.28498649	10.85192093
926	9.25000000	-8.48994607	-0.00850679	6.69578358	9.10610482	0.32809155	2.59813770	5.83331732	2.45142620	-1.86273781	7.96201302	-0.68078809	0.99113673	9.51774109	-2.04954528	-0.29549894	8.92213649	0.75825389	-1.75609860	4.33110861	4.28711657	8.10089115	5.06603913	1.39601634	11.04464583
927	9.26000000	-8.53276109	-0.02665586	6.83019004	9.25873156	0.25408122	2.54864116	7.19693499	2.12424236	-1.15864130	8.07101194	-0.66500496	1.00987249	9.39665979	-1.51861520	-0.23426248	8.91508679	0.51881394	-1.88132982	6.42088791	3.80024554	8.53179723	5.02072539	1.24461279	11.12348896
928	9.27000000	-8.51919998	-0.00518634	6.82361333	9.36806927	0.16252011	2.49964276	7.91805408	3.53439933	-0.43451225	8.17002163	-0.82814368	0.99462830	9.61424309	-1.01726978	-0.04632592	9.14755687	0.64682815	-1.84767622	8.41557751	2.99725400	8.66057077	5.38075898	1.20127247	10.81190896
929	9.28000000	-8.51361136	-0.04326311	6.76511690	9.41984251	0.04523734	2.33549385	8.06100355	6.26107664	-0.27999635	8.19604920	-1.06258113	0.96015082	9.88111262	-1.24814296	-0.00619699	9.36581173	0.39694760	-1.86438041	9.88732545	1.85547710	9.09129672	5.37618153	1.22405652	10.88725845
930	9.29000000	-8.49630451	-0.09536985	6.69407774	9.24350930	-0.06969656	2.22077182	8.00028470	9.93525042	-1.30983773	8.03580030	-1.39300243	0.86982264	9.85325742	-1.93383781	0.02877774	9.40528719	0.20903258	-2.10914743	10.48292079	0.83743217	9.51767451	5.29361520	1.15811051	11.07274998
931	9.30000000	-8.60933322	-0.10431584	6.69022845	9.15458994	-0.15072401	2.03674010	7.96089332	12.85739968	-2.30716650	7.69015527	-1.73181003	0.71954554	9.63666322	-2.40129509	0.06328380	9.43915182	0.40310650	-2.28728820	10.68625063	0.31546544	10.10938605	4.99928418	1.15893140	11.11112745
932	9.31000000	-8.79219607	-0.15730760	6.73989689	9.31236229	-0.23837740	1.87689869	7.88175534	13.01068304	-1.46470866	7.16487565	-2.04615281	0.48879009	9.66078798	-2.62096167	0.19386437	9.47622271	0.51403129	-2.22708820	14.05030572	-0.79975165	11.33567997	5.44722984	1.05893986	10.82771681
933	9.32000000	-8.77552071	-0.18772385	6.62625661	9.33914860	-0.31862725	1.78594218	8.41196370	11.53613457	-2.35772712	7.04143483	-2.27909203	-0.03661977	9.82603968	-2.48113757	0.17791208	9.43625719	0.38110657	-2.16767417	18.58435136	1.34429701	11.38011643	5.53299126	0.83558299	10.81778435
934	9.33000000	-8.68810043	-0.22106576	6.53122636	9.08319451	-0.41136685	1.77279516	9.35107427	9.25248725	-4.38225657	7.40002788	-1.80346170	-0.47814835	10.14788219	-1.71489100	-0.24796407	9.51496038	0.37282434	-2.23105466	19.40212328	5.90131241	10.00526020	5.28066364	1.01885737	11.03555925
935	9.34000000	-8.73688870	-0.29179170	6.46918454	8.82990005	-0.53309157	1.78675352	10.04025931	6.08697277	-3.66545875	7.76062503	-1.24908130	-0.29015897	10.23874964	-0.88360554	-0.50507823	9.69366852	1.01655548	-2.26501078	19.15141967	6.25605753	8.01774406	4.71497285	1.22495481	11.21948879
936	9.35000000	-8.79881072	-0.32897290	6.48182746	8.92298369	-0.46765093	1.58124794	10.67893252	4.12034021	-3.86736850	7.89321965	-2.29619486	-0.02863307	9.96561086	-0.41271887	-0.70543994	9.53253028	1.49046447	-2.19787192	19.55311389	5.91410987	6.05142823	5.00446985	1.21835299	11.12461291
937	9.36000000	-8.92655462	-0.25508530	6.50179538	9.14785787	-0.38856564	1.47406413	10.37335662	2.85230931	-2.98760342	7.45544244	-4.96202178	0.32087962	10.12499478	0.06463650	-1.00790266	9.17491392	1.98483034	-2.08572142	19.98094721	4.44477174	4.53279833	5.32127281	1.29002525	10.94636076
938	9.37000000	-8.95487295	-0.21617898	6.51779972	9.29225974	-0.44665256	1.52731411	9.85092757	1.54410901	-1.49799653	7.44398423	-6.99953224	0.53653681	10.23911333	0.36974454	-1.19005342	8.92051125	2.39492115	-1.90257698	20.18964387	2.75618961	2.58630243	5.10475087	1.51670066	10.99345689
939	9.38000000	-9.02174907	-0.18951113	6.40921340	9.41662832	-0.52748721	1.61165814	9.36459688	1.47634465	0.14642004	7.97320942	-7.78553772	0.19028364	10.17210239	0.58831125	-1.48108794	8.90497367	2.81112071	-1.82412232	19.79654420	1.18005811	0.49986750	4.66394837	1.72911749	11.26285083
940	9.39000000	-9.03592396	-0.16404036	6.26990776	9.40133717	-0.60734868	1.59802161	9.08363608	2.60852485	-0.11420118	8.86089784	-8.60376374	-0.15185717	10.48160074	0.73977580	-1.49067983	8.92826967	3.18294265	-1.72705957	19.72943789	-0.18395648	-1.23803707	4.93657934	1.70585764	11.33006791
941	9.40000000	-8.90890583	-0.15810052	6.26185317	9.34691589	-0.66711007	1.48321792	8.87511349	3.56001498	-0.57939952	9.45476554	-8.92450097	-0.40870154	10.75491336	0.92530864	-1.39838338	8.90844624	2.59528222	-1.53966239	20.39647804	-1.17972844	-2.33879392	5.14058610	1.47775143	11.09155492
942	9.41000000	-8.79772883	-0.08173230	6.34544411	9.30015898	-0.68173680	1.40594756	8.19400698	3.54201505	0.21078465	9.43451395	-8.81820538	-1.05884750	10.51817390	1.07567463	-1.15045153	9.02012167	1.68300693	-1.44578793	21.33114866	-1.46828773	-3.13881727	5.08677362	1.48532431	11.24786790
943	9.42000000	-8.61249841	0.07826837	6.41150724	9.40742468	-0.66270651	1.28580264	7.57947024	2.93454252	1.45338172	9.01162461	-8.55895125	-1.95143911	10.30069203	1.07666852	-0.86648868	9.27717742	1.31421300	-1.66937280	21.59543762	-1.04012422	-4.39585879	4.92266425	1.46775693	11.46313372
944	9.43000000	-8.44104349	0.18571355	6.44699005	9.66497097	-0.69210439	1.30965448	7.30929167	2.14313294	1.59245084	8.00039797	-8.01647734	-2.48391333	10.29227415	1.00101073	-0.54731226	9.35192738	1.21783817	-1.97772364	20.20119114	-0.31769501	-5.70142639	4.78250955	1.45286720	11.58171146
945	9.44000000	-8.31929340	0.20919152	6.46624052	9.64565384	-0.75619527	1.32449744	7.05311130	1.58078745	0.86919269	6.69366195	-7.05995554	-2.56845649	10.20606908	0.95033924	-0.17597432	9.33169092	1.22144253	-2.16264766	19.05097383	-0.15809208	-6.33207455	5.18808627	1.26550205	11.42414024
946	9.45000000	-8.37770888	0.15559221	6.70953577	9.42723955	-0.79197689	1.20284084	6.65609759	1.30749531	0.12686789	5.94945065	-5.97345378	-2.26778755	10.13880296	0.72506500	0.34569321	9.21449347	1.44604552	-2.32002124	19.27957742	0.26015648	-4.37633795	5.45198747	1.00399568	11.17517652
947	9.46000000	-9.07328937	0.08307356	7.19955994	9.18028420	-0.76076370	1.16405078	6.19326100	1.45448496	-0.40086031	5.68669514	-4.91389399	-2.18858947	10.11482899	0.24277287	0.74095163	8.93268391	1.74159588	-2.48616726	16.18473523	-1.37021369	-7.31064980	5.02161029	0.71106311	11.68262192
948	9.47000000	-10.17425545	0.07172892	7.42361316	9.27429677	-0.63026694	1.71058868	6.58410180	2.17142236	-2.45761265	6.13981136	-3.84122738	-1.68930328	10.42123029	-0.13290556	1.07706796	9.07562224	2.05155537	-2.38804817	-0.82182901	-1.21032240	-7.48524516	4.11329036	0.04125283	12.05916996
949	9.48000000	-10.91970874	0.13158046	7.50379614	9.75138430	-0.48998329	2.48479131	8.35494133	1.45038180	-5.23481920	7.74491270	-2.39021150	0.01015093	11.33598130	-0.06968245	1.27185699	9.99425092	2.21798749	-2.07769673	-8.81744377	-0.81023145	8.32121572	4.86729172	0.65339594	12.08460327
950	9.49000000	-11.12709293	0.29597023	7.53752395	10.26876483	-0.24804577	2.91263346	10.63647326	-1.11051146	-2.46641128	9.92871128	-0.61587752	2.08197414	12.21603902	-0.55937580	0.72920356	11.21331520	2.27111034	-1.90212353	1.40498942	0.74943986	15.83973943	4.77232882	1.49565828	12.84434016
951	9.50000000	-10.90494322	0.36718772	7.33055126	10.84777279	0.15543290	3.34847063	13.50022393	-4.87652640	3.62299014	10.46422877	0.08561707	2.51846784	12.77025235	-0.87583514	0.49692429	11.89602082	2.40218775	-1.83387369	1.55109981	7.71979989	10.69077314	4.24149934	0.85825637	12.80297259
952	9.51000000	-10.99591221	0.40509492	7.41353004	11.67241416	0.84395842	3.44214780	15.64878770	-7.01184784	6.28579257	11.00896204	-0.12448043	1.95623787	12.83267755	-1.04871085	0.77022088	11.84326386	2.66170191	-1.63672818	6.59423264	3.24037732	8.36427056	4.60714027	0.87309066	12.94906533
953	9.52000000	-11.52979961	0.56661889	7.64768210	12.26642781	1.50434039	3.77513267	14.99441442	-2.07546966	4.87442222	12.58566005	-0.56472000	1.91096684	12.65912949	-1.35379265	1.39978993	11.63798072	2.85207342	-1.72606598	14.11029044	0.99739369	13.71894859	4.52515346	0.84268985	13.15684306
954	9.53000000	-11.88136742	0.74185105	7.26282493	12.13594807	1.81630720	4.65494008	13.67531295	5.01443001	1.90617659	12.26229635	-1.39585948	0.42734986	12.91449107	-1.49363601	1.91304237	11.44691893	2.82373199	-1.78119556	15.45443945	4.28593199	13.39585498	4.74161277	0.07120511	12.99131835
955	9.54000000	-11.67877021	0.99436372	6.98673488	11.90795464	1.88631571	5.12551926	12.21591133	9.12234332	-0.01661817	12.45137199	-2.89331253	-1.72698236	13.73550604	-1.35775299	2.07697751	11.42027714	2.72063222	-1.07330804	12.62452107	4.37925082	10.65751125	4.33418114	-0.69265433	13.29368862
956	9.55000000	-11.15008440	1.26058969	6.84496828	11.77407653	1.84848269	4.97151316	10.35385662	10.25149520	0.61250404	13.12429263	-4.92576297	-1.66466466	14.40272273	-0.88846405	2.33026825	11.67047764	2.19699580	-0.66796398	12.56229557	3.26542730	12.19026103	3.98406412	0.20011257	13.71879959
957	9.56000000	-10.71910821	1.43667854	6.52939091	11.59463319	1.71476364	4.67472666	10.33964520	9.92497622	0.74685603	13.36551876	-5.50819707	0.57081821	14.23670352	-0.58659107	3.07663388	11.97812037	1.07472137	-0.86301157	8.90185395	2.25139990	10.96935251	4.55606655	1.16657206	13.82846584
958	9.57000000	-10.47875195	1.48177723	6.38923693	11.34835347	1.21905863	4.43420707	10.18109341	8.77100726	-1.23867081	12.72028690	-4.71732013	-0.13229574	13.18606900	-0.89293132	3.41347832	12.18733476	-0.02100621	-0.66275862	8.99415909	0.09261634	10.76325522	5.40862507	0.91255250	12.71668366
959	9.58000000	-10.31167034	1.56612153	6.40355601	11.07183480	0.56581919	4.35168472	9.05977749	7.11168866	-2.58970573	12.26016058	-1.87939117	-0.40993248	12.07152277	-1.74785023	2.81773930	12.27753333	-0.74470543	-0.39120918	10.53471450	0.90038319	10.67473426	6.06259816	1.27032673	12.30748727
960	9.59000000	-10.12153236	1.73495135	6.42093179	11.00374216	0.18437892	4.47083464	8.71039973	5.14006907	-3.58413842	10.55104241	1.94646750	0.77446854	11.38983512	-2.66295415	1.21968198	12.19982960	-1.28374589	-0.82140576	6.15491133	1.37126037	9.00776141	8.66395680	-0.53831272	12.93847275
